<?xml version="1.0" encoding="utf-8"?>
<!-- Generator: Adobe Illustrator 16.0.0, SVG Export Plug-In . SVG Version: 6.00 Build 0)  -->
<!DOCTYPE svg PUBLIC "-//W3C//DTD SVG 1.1//EN" "http://www.w3.org/Graphics/SVG/1.1/DTD/svg11.dtd">
<svg version="1.1" id="Layer_1" xmlns="http://www.w3.org/2000/svg" xmlns:xlink="http://www.w3.org/1999/xlink" x="0px" y="0px"
	 width="24px" height="24px" viewBox="0 0 24 24" enable-background="new 0 0 24 24" xml:space="preserve">
<g>
	<path d="M16.786,22.625c0,0.756-0.63,1.375-1.398,1.375H8.366c-0.771,0-1.398-0.619-1.398-1.375v-9.798
		c0-0.756,0.628-1.375,1.398-1.375h7.021c0.769,0,1.398,0.619,1.398,1.375V22.625z"/>
	<g>
		<path d="M5.484,19.371v-6.254c0-0.486-0.502-0.88-1.124-0.88c-0.621,0-1.124,0.394-1.124,0.88v6.254H5.484z"/>
		<path d="M5.614,20.048c0.547-0.004,0.989,0.313,0.989,0.697c0,0.025-0.004,0.049-0.004,0.073c0,0.024,0.011,0.048,0.004,0.073
			l0.007,0.857c0,0.309-0.357,0.562-0.801,0.562c-0.438,0-0.796-0.253-0.796-0.562v-0.301l-1.303,0.005v0.296
			c0,0.313-0.362,0.565-0.8,0.565c-0.442,0-0.801-0.252-0.801-0.565v-0.854c0-0.043,0.012-0.088,0.023-0.132
			c0-0.004,0-0.008,0-0.012c0-0.389,0.442-0.702,0.994-0.702H5.614z"/>
	</g>
	<g>
		<path d="M20.619,19.371v-6.254c0-0.486-0.502-0.88-1.123-0.88c-0.622,0-1.124,0.394-1.124,0.88v6.254H20.619z"/>
		<path d="M20.751,20.048c0.546-0.004,0.988,0.313,0.988,0.697c0,0.025-0.005,0.049-0.005,0.073c0,0.024,0.011,0.048,0.005,0.073
			l0.006,0.857c0,0.309-0.357,0.562-0.801,0.562c-0.438,0-0.796-0.253-0.796-0.562v-0.301l-1.301,0.005v0.296
			c0,0.313-0.362,0.565-0.801,0.565c-0.443,0-0.801-0.252-0.801-0.565v-0.854c0-0.043,0.011-0.088,0.022-0.132
			c0-0.004,0-0.008,0-0.012c0-0.389,0.443-0.702,0.995-0.702H20.751z"/>
	</g>
	<path d="M18.831,9.624c0.603-1.043,0.892-1.576,1.479-2.616c0.651-1.243-0.145-2.944-1.389-3.596L16.74,2.27
		c-1.243-0.651-3.094-0.337-3.744,0.906c-0.522,1.075-0.795,1.616-1.31,2.705c-0.417,0.811-0.351,1.741,0.085,2.472
		c0.233,0.394,0.575,0.731,1.011,0.959l2.605,1.364c0.435,0.229,0.907,0.318,1.365,0.286C17.601,10.904,18.401,10.43,18.831,9.624z
		 M15.506,5.784l-0.452,0.142l-0.292-0.934l-0.936,0.292l-0.142-0.453l0.936-0.293l-0.294-0.934l0.454-0.142l0.292,0.935
		l0.936-0.292l0.141,0.453L15.215,4.85L15.506,5.784z M18.644,7.428L18.189,7.57l-0.291-0.935l-0.935,0.292l-0.142-0.453
		l0.934-0.292l-0.291-0.935l0.453-0.142L18.21,6.04l0.934-0.292l0.143,0.453l-0.935,0.292L18.644,7.428z"/>
	<path d="M21.711,4.04c-0.372-1.425-1.309-2.693-2.713-3.427c-1.401-0.734-2.979-0.784-4.36-0.278
		c-1.229,0.45-2.304,1.336-2.96,2.589c-1.197,2.289-1.341,3.744-0.876,4.793c0.084,0.191,0.187,0.368,0.309,0.534
		c-0.037-0.085-0.069-0.172-0.099-0.259c-0.233-0.725-0.191-1.532,0.178-2.253c0.358-0.756,0.604-1.26,0.89-1.844
		c0.151-0.307,0.311-0.636,0.506-1.039c0.784-1.497,2.929-1.801,4.322-1.07L19.226,3c1.691,0.886,2.229,2.928,1.578,4.17
		c-0.216,0.383-0.394,0.702-0.562,1c-0.318,0.565-0.593,1.055-1.008,1.774c-0.383,0.719-1.027,1.214-1.756,1.434
		c-0.096,0.03-0.194,0.052-0.292,0.072c0.226,0.008,0.452-0.009,0.675-0.054c1.113-0.229,2.219-1.18,3.407-3.449
		C21.925,6.694,22.041,5.306,21.711,4.04z"/>
</g>
</svg>
